<?xml version="1.0" encoding="UTF-8" standalone="no"?>
<svg
   xmlns:dc="http://purl.org/dc/elements/1.1/"
   xmlns:cc="http://creativecommons.org/ns#"
   xmlns:rdf="http://www.w3.org/1999/02/22-rdf-syntax-ns#"
   xmlns:svg="http://www.w3.org/2000/svg"
   xmlns="http://www.w3.org/2000/svg"
   xmlns:sodipodi="http://sodipodi.sourceforge.net/DTD/sodipodi-0.dtd"
   xmlns:inkscape="http://www.inkscape.org/namespaces/inkscape"
   width="260"
   height="260"
   viewBox="0 0 68.791665 68.791669"
   version="1.1"
   id="svg8"
   inkscape:version="1.0.1 (3bc2e813f5, 2020-09-07, custom)"
   sodipodi:docname="Monero.svg">
  <defs
     id="defs2" />
  <sodipodi:namedview
     id="base"
     pagecolor="#ffffff"
     bordercolor="#666666"
     borderopacity="1.0"
     inkscape:pageopacity="0.0"
     inkscape:pageshadow="2"
     inkscape:zoom="1.4"
     inkscape:cx="75.330028"
     inkscape:cy="121.91215"
     inkscape:document-units="mm"
     inkscape:current-layer="layer1"
     inkscape:document-rotation="0"
     showgrid="false"
     units="px"
     inkscape:window-width="1920"
     inkscape:window-height="1024"
     inkscape:window-x="1920"
     inkscape:window-y="0"
     inkscape:window-maximized="1" />
  <metadata
     id="metadata5">
    <rdf:RDF>
      <cc:Work
         rdf:about="">
        <dc:format>image/svg+xml</dc:format>
        <dc:type
           rdf:resource="http://purl.org/dc/dcmitype/StillImage" />
        <dc:title></dc:title>
      </cc:Work>
    </rdf:RDF>
  </metadata>
  <g
     inkscape:label="Ebene 1"
     inkscape:groupmode="layer"
     id="layer1">
    <path
       style="fill:#ffffff;stroke-width:1"
       id="path855"
       sodipodi:type="arc"
       sodipodi:cx="34.428963"
       sodipodi:cy="34.35778"
       sodipodi:rx="34.188118"
       sodipodi:ry="34.21748"
       sodipodi:start="0"
       sodipodi:end="6.2720152"
       sodipodi:open="true"
       sodipodi:arc-type="arc"
       d="M 68.617081,34.35778 A 34.188118,34.21748 0 0 1 34.524434,68.575127 34.188118,34.21748 0 0 1 0.24137794,34.548886 34.188118,34.21748 0 0 1 34.142552,0.1415015 34.188118,34.21748 0 0 1 68.614948,33.975575" />
    <g
       id="g839"
       transform="matrix(0.26458333,0,0,0.26458333,7.9242938,7.9375003)">
	<path
   class="st0"
   d="m 197.5,100 c 0,53.8 -43.7,97.5 -97.5,97.5 C 46.2,197.5 2.5,153.8 2.5,100 2.5,46.1 46.1,2.5 100,2.5 c 53.8,0 97.5,43.6 97.5,97.5 z"
   id="path835" />

	<path
   id="_149931032_1_"
   class="st1"
   d="M 100,2.5 C 46.2,2.5 2.4,46.2 2.5,100 c 0,10.8 1.7,21.1 4.9,30.8 h 29.2 v -82 l 63.4,63.4 63.4,-63.4 v 82 h 29.2 c 3.2,-9.7 4.9,-20 5,-30.8 C 197.6,46.2 153.8,2.5 100,2.5 Z" />

	<path
   id="_149931160_1_"
   class="st2"
   d="M 85.4,126.7 57.8,99 v 51.6 H 47.2 36.6 16.6 c 17.1,28.1 48,46.9 83.3,46.9 35.3,0 66.2,-18.8 83.3,-46.9 h -20 -18.9 -2.2 V 99 l -27.7,27.7 -14.4,14.6 z" />

</g>
  </g>
  <style
     type="text/css"
     id="style833">
	.st0{fill:none;}
	.st1{fill:#F16822;}
	.st2{fill:#4D4D4D;}
</style>
</svg>
